<svg xmlns="http://www.w3.org/2000/svg" xmlns:xlink="http://www.w3.org/1999/xlink" width="1920" height="1859.987" viewBox="0 0 1920 1859.987">
  <defs>
    <linearGradient id="linear-gradient" y1="0.5" x2="1" y2="0.5" gradientUnits="objectBoundingBox">
      <stop offset="0.063" stop-color="#ff7208"/>
      <stop offset="1" stop-color="#e82c00"/>
    </linearGradient>
  </defs>
  <g id="Group_447" data-name="Group 447" transform="translate(-0.66 -3937.953)">
    <g id="Group_471" data-name="Group 471">
      <path id="Path_1408" data-name="Path 1408" d="M1920.66,4099.5V5637.851c-366.141,193.647-592.86,178.336-733.64,125.57-85.89-32.184-163.091-87.046-294.131-80.8-154.429,7.356-202.159,90.927-349.27,69.884-113.379-16.21-117.869-70.547-218.559-65.522-105.44,5.271-156.88,67.682-232.85,39.316-46.87-17.5-75.59-59.3-91.55-88.447V4099.5c366.14-193.658,592.86-178.336,733.64-125.581,85.89,32.184,163.09,87.046,294.129,80.8,154.431-7.346,202.161-90.927,349.27-69.885,113.381,16.22,117.871,70.548,218.56,65.522,105.44-5.271,156.881-67.682,232.851-39.315C1875.98,4028.546,1904.71,4070.342,1920.66,4099.5Z" fill="#333"/>
      <path id="Path_1409" data-name="Path 1409" d="M1920.66,4098.046v644.145c-366.141,193.648-592.86,178.337-733.64,125.57-85.89-32.184-163.091-87.046-294.131-80.8-154.429,7.356-202.159,90.927-349.27,69.885-113.379-16.21-117.869-70.548-218.559-65.523-105.44,5.272-156.88,67.682-232.85,39.316-46.87-17.5-75.59-59.3-91.55-88.447V4098.046c366.14-193.657,592.86-178.335,733.64-125.58,85.89,32.184,163.09,87.046,294.129,80.8,154.431-7.345,202.161-90.927,349.27-69.884,113.381,16.22,117.871,70.547,218.56,65.522,105.44-5.271,156.881-67.682,232.851-39.315C1875.98,4027.093,1904.71,4068.889,1920.66,4098.046Z" fill="#333" opacity="0.901" style="mix-blend-mode: overlay;isolation: isolate"/>
    </g>
    <g id="Group_437" data-name="Group 437">
      <circle id="Ellipse_19" data-name="Ellipse 19" cx="26.777" cy="26.777" r="26.777" transform="translate(1739.151 4384.736)" fill="#fff"/>
      <g id="Group_436" data-name="Group 436" opacity="0.82">
        <g id="Group_435" data-name="Group 435">
          <path id="Path_1410" data-name="Path 1410" d="M1760.438,4394.681a2.621,2.621,0,0,1,1.7.626l15.2,12.927a2.629,2.629,0,0,1,.156,3.862l-15.2,15.2a2.629,2.629,0,0,1-3.718-3.718l13.185-13.185-13.029-11.081a2.628,2.628,0,0,1,1.7-4.631Z" fill="url(#linear-gradient)"/>
        </g>
      </g>
    </g>
    <g id="Group_440" data-name="Group 440">
      <circle id="Ellipse_20" data-name="Ellipse 20" cx="26.777" cy="26.777" r="26.777" transform="translate(125.208 4384.736)" fill="#fff"/>
      <g id="Group_439" data-name="Group 439">
        <g id="Group_438" data-name="Group 438">
          <path id="Path_1411" data-name="Path 1411" d="M157.475,4394.681a2.619,2.619,0,0,0-1.7.626l-15.2,12.927a2.629,2.629,0,0,0-.156,3.862l15.2,15.2a2.629,2.629,0,0,0,3.718-3.718l-13.185-13.185,13.029-11.081a2.629,2.629,0,0,0-1.7-4.631Z" opacity="0.82" fill="url(#linear-gradient)"/>
        </g>
      </g>
    </g>
    <g id="Group_443" data-name="Group 443">
      <circle id="Ellipse_21" data-name="Ellipse 21" cx="26.777" cy="26.777" r="26.777" transform="translate(1739.151 5028.14)" fill="#fff"/>
      <g id="Group_442" data-name="Group 442" opacity="0.82">
        <g id="Group_441" data-name="Group 441">
          <path id="Path_1412" data-name="Path 1412" d="M1760.438,5038.085a2.617,2.617,0,0,1,1.7.627l15.2,12.926a2.629,2.629,0,0,1,.156,3.862l-15.2,15.2a2.629,2.629,0,0,1-3.718-3.718l13.185-13.185-13.029-11.08a2.629,2.629,0,0,1,1.7-4.632Z" fill="url(#linear-gradient)"/>
        </g>
      </g>
    </g>
    <g id="Group_446" data-name="Group 446">
      <circle id="Ellipse_22" data-name="Ellipse 22" cx="26.777" cy="26.777" r="26.777" transform="translate(125.208 5028.14)" fill="#fff"/>
      <g id="Group_445" data-name="Group 445">
        <g id="Group_444" data-name="Group 444">
          <path id="Path_1413" data-name="Path 1413" d="M157.475,5038.085a2.615,2.615,0,0,0-1.7.627l-15.2,12.926a2.629,2.629,0,0,0-.156,3.862l15.2,15.2a2.629,2.629,0,1,0,3.718-3.718L146.15,5053.8l13.029-11.08a2.629,2.629,0,0,0-1.7-4.632Z" opacity="0.82" fill="url(#linear-gradient)"/>
        </g>
      </g>
    </g>
  </g>
</svg>
