<svg xmlns="http://www.w3.org/2000/svg" width="1920" height="964.328" viewBox="0 0 1920 964.328">
  <path id="Path_1409" data-name="Path 1409" d="M1920.66,4098.046v644.145c-366.141,193.648-592.86,178.337-733.64,125.57-85.89-32.184-163.091-87.046-294.131-80.8-154.429,7.356-202.159,90.927-349.27,69.885-113.379-16.21-117.869-70.548-218.559-65.523-105.44,5.272-156.88,67.682-232.85,39.316-46.87-17.5-75.59-59.3-91.55-88.447V4098.046c366.14-193.657,592.86-178.335,733.64-125.58,85.89,32.184,163.09,87.046,294.129,80.8,154.431-7.345,202.161-90.927,349.27-69.884,113.381,16.22,117.871,70.547,218.56,65.522,105.44-5.271,156.881-67.682,232.851-39.315C1875.98,4027.093,1904.71,4068.889,1920.66,4098.046Z" transform="translate(-0.66 -3937.953)" fill="#333" opacity="0.901" style="mix-blend-mode: overlay;isolation: isolate"/>
</svg>
